<?xml version="1.0" standalone="no"?>
<!DOCTYPE svg PUBLIC "-//W3C//DTD SVG 20010904//EN"
 "http://www.w3.org/TR/2001/REC-SVG-20010904/DTD/svg10.dtd">
<svg version="1.0" xmlns="http://www.w3.org/2000/svg"
 width="300.000000pt" height="292.000000pt" viewBox="0 0 300.000000 292.000000"
 preserveAspectRatio="xMidYMid meet">
<metadata>
Created by potrace 1.10, written by Peter Selinger 2001-2011
</metadata>
<g transform="translate(0.000000,292.000000) scale(0.100000,-0.100000)"
fill="#000000" stroke="none">
<path d="M1396 2898 c-27 -5 -79 -26 -115 -47 -36 -21 -87 -50 -112 -64 -26
-15 -59 -43 -75 -63 -16 -20 -51 -57 -77 -83 -53 -50 -52 -42 -29 -156 9 -47
20 -36 26 26 8 87 18 107 81 173 35 36 69 66 75 66 7 0 23 9 37 20 14 11 29
17 34 14 5 -3 12 2 15 10 3 9 12 16 19 16 7 0 15 3 17 8 5 12 91 52 113 52 11
0 38 9 60 19 40 19 40 19 10 19 -16 0 -52 -4 -79 -10z"/>
<path d="M2000 2902 c0 -10 36 -43 92 -84 20 -15 42 -34 50 -41 7 -7 20 -16
29 -19 19 -7 29 -59 32 -165 1 -39 5 -74 8 -77 3 -4 9 33 13 80 3 48 9 91 13
96 14 24 19 -24 14 -135 -6 -120 -1 -145 19 -106 9 16 9 20 0 14 -9 -5 -10 10
-5 61 9 89 15 94 15 14 0 -58 1 -62 14 -44 10 13 11 23 4 31 -8 10 -6 13 6 13
22 0 17 33 -19 122 -18 45 -39 77 -61 95 -19 16 -51 42 -72 59 -40 33 -135 94
-145 94 -4 0 -7 -4 -7 -8z"/>
<path d="M2094 2743 c1 -21 3 -67 4 -103 3 -68 14 -67 26 3 5 27 4 37 -3 32
-7 -4 -12 6 -13 27 -3 62 -4 67 -9 73 -4 3 -5 -11 -5 -32z"/>
<path d="M2008 2744 c-8 -7 22 -94 32 -94 4 0 2 21 -6 47 -16 51 -18 56 -26
47z"/>
<path d="M2162 2655 c-15 -32 -15 -65 -2 -65 6 0 11 6 11 13 1 6 3 27 5 45 5
39 1 40 -14 7z"/>
<path d="M1790 2605 c0 -12 24 -55 32 -55 11 0 10 4 -4 35 -9 21 -28 35 -28
20z"/>
<path d="M1597 2573 c29 -46 53 -76 53 -66 0 11 -57 93 -65 93 -3 0 2 -12 12
-27z"/>
<path d="M938 2554 c-12 -11 -9 -82 3 -89 18 -12 22 2 13 50 -5 26 -12 43 -16
39z"/>
<path d="M1440 2485 c0 -24 20 -56 31 -50 5 4 9 0 9 -8 0 -8 6 -20 14 -26 11
-9 10 -4 -2 24 -9 19 -20 35 -24 35 -4 0 -8 6 -8 14 0 8 -4 18 -10 21 -5 3
-10 -1 -10 -10z"/>
<path d="M894 2458 c3 -9 -2 -19 -11 -22 -9 -4 -13 -14 -10 -26 4 -17 2 -18
-15 -9 -30 16 -30 7 -4 -47 29 -59 55 -95 56 -76 0 7 -11 28 -25 46 -29 38
-33 55 -8 35 15 -12 16 -12 9 5 -6 19 -6 19 11 4 17 -16 18 -14 16 27 -1 25
-7 53 -13 62 -10 15 -11 15 -6 1z"/>
<path d="M2300 2438 c0 -7 8 -14 18 -15 9 -1 28 -4 42 -8 19 -5 22 -4 10 4 -8
6 -10 11 -5 11 6 -1 19 -7 29 -15 18 -14 18 -15 -10 -25 -16 -6 -45 -9 -64 -5
-26 4 -31 3 -20 -4 8 -6 45 -11 81 -11 52 0 69 4 83 19 16 18 16 20 -14 35
-46 22 -150 33 -150 14z"/>
<path d="M2320 2296 c19 -19 38 -32 42 -29 5 2 8 0 8 -6 0 -5 -4 -13 -10 -16
-23 -14 -7 -23 39 -22 38 2 47 5 39 15 -7 8 -7 12 2 12 8 0 10 3 7 6 -4 4 -13
1 -21 -5 -12 -10 -19 -8 -37 11 -32 32 -81 68 -93 68 -6 0 5 -15 24 -34z"/>
<path d="M2387 2323 c-14 -4 -11 -9 18 -29 42 -28 70 -32 38 -5 -13 11 -23 24
-23 30 0 11 -3 12 -33 4z"/>
<path d="M928 2272 c-5 -19 28 -70 38 -59 7 6 4 14 -20 55 -12 21 -14 22 -18
4z"/>
<path d="M1635 2230 c11 -5 31 -9 45 -9 20 -1 22 1 10 9 -8 5 -28 9 -45 9 -26
0 -27 -2 -10 -9z"/>
<path d="M810 2191 c0 -10 61 -34 68 -27 4 4 -51 36 -63 36 -3 0 -5 -4 -5 -9z"/>
<path d="M2328 2167 c-7 -17 15 -140 33 -182 4 -11 11 -38 14 -60 3 -22 8 -56
12 -75 10 -51 6 -146 -6 -167 -8 -14 -10 -9 -11 29 0 26 -4 49 -8 52 -5 3 -8
-26 -8 -65 1 -52 4 -68 13 -64 7 2 13 0 13 -5 0 -6 -7 -10 -15 -10 -15 0 -20
-26 -9 -54 8 -22 34 -2 34 26 0 11 4 27 9 36 17 32 20 213 6 292 -23 122 -39
186 -52 201 -6 8 -13 25 -15 39 -3 21 -4 22 -10 7z"/>
<path d="M883 2144 c-3 -8 -12 -13 -19 -10 -8 3 -14 2 -14 -2 0 -18 26 -32 57
-32 24 0 33 -5 34 -17 3 -43 -4 -82 -22 -136 -21 -63 -23 -110 -9 -208 5 -37
12 -136 15 -220 7 -213 19 -301 54 -398 34 -93 35 -96 51 -86 7 4 8 11 1 18
-15 19 -50 126 -66 206 -10 48 -16 131 -16 240 0 91 -6 213 -13 271 -13 106
-9 150 17 150 7 0 13 9 14 20 1 11 -2 20 -7 20 -5 0 -7 7 -4 15 4 8 10 12 15
9 5 -3 9 4 9 15 0 11 -4 23 -10 26 -5 3 -10 19 -10 34 0 26 -31 71 -50 71 -5
0 -7 7 -4 15 4 8 1 15 -5 15 -7 0 -14 -7 -18 -16z"/>
<path d="M1433 2135 c4 -11 81 -23 110 -16 10 2 16 9 14 15 -2 6 -29 11 -65
11 -38 0 -61 -4 -59 -10z"/>
<path d="M2063 1800 c-46 -10 -97 -23 -114 -29 -18 -6 -51 -11 -74 -11 -23 0
-56 -7 -73 -16 -33 -16 -76 -67 -66 -77 9 -8 44 16 44 29 0 7 8 10 19 7 11 -3
29 2 41 10 12 8 30 13 41 10 10 -3 19 -1 19 4 0 5 9 9 21 10 17 2 18 -1 8 -13
-14 -18 -4 -31 13 -17 18 14 187 66 215 66 13 0 33 -9 45 -19 20 -18 21 -18
15 -1 -4 10 -7 22 -7 26 0 6 -55 42 -62 40 -1 -1 -40 -9 -85 -19z"/>
<path d="M1196 1685 c-11 -11 -21 -13 -40 -5 -21 8 -24 7 -19 -7 4 -11 2 -14
-8 -11 -8 3 -22 1 -31 -4 -14 -6 -16 -5 -12 7 10 26 -28 17 -66 -15 -32 -27
-33 -30 -12 -30 12 0 22 5 22 10 0 6 24 10 54 10 30 0 66 4 80 9 18 7 28 6 36
-5 15 -17 115 -20 105 -3 -4 6 -24 9 -46 8 -47 -4 -58 5 -27 22 12 7 24 11 26
10 1 -1 10 3 20 8 13 8 8 10 -25 11 -24 0 -48 -6 -57 -15z"/>
<path d="M1950 1661 c-19 -6 -14 -8 25 -9 28 0 69 -5 93 -10 53 -12 66 3 15
17 -43 12 -96 13 -133 2z"/>
<path d="M1827 1614 c-21 -14 -36 -29 -32 -32 3 -4 9 -2 13 4 4 6 22 19 40 28
31 16 40 26 24 26 -4 0 -25 -12 -45 -26z"/>
<path d="M1875 1590 c-91 -47 -112 -75 -37 -49 16 5 32 19 35 30 6 23 37 26
37 3 0 -14 8 -16 53 -10 28 4 54 11 55 17 4 11 32 12 32 1 0 -15 79 -37 91
-25 8 8 0 14 -28 23 -21 7 -43 17 -50 22 -7 6 -38 12 -70 15 -51 4 -66 1 -118
-27z"/>
<path d="M2463 1605 c15 -11 16 -17 7 -34 -8 -16 -7 -26 6 -46 9 -14 17 -25
19 -25 6 0 -1 100 -8 106 -4 4 -15 9 -25 10 -15 2 -15 1 1 -11z"/>
<path d="M1375 1555 c55 -26 65 -29 65 -17 0 10 -76 42 -98 41 -9 0 6 -11 33
-24z"/>
<path d="M1133 1559 c-32 -9 -54 -29 -33 -29 13 0 70 29 70 35 0 3 -1 5 -2 4
-2 0 -17 -5 -35 -10z"/>
<path d="M1221 1549 c-19 -6 -46 -19 -59 -30 -14 -10 -30 -19 -37 -19 -6 0
-20 -9 -29 -19 -22 -24 -2 -40 22 -18 9 9 29 18 44 22 16 4 25 12 22 20 -3 7
2 15 11 19 11 4 18 0 21 -11 7 -27 101 -19 110 9 3 11 4 22 1 24 -10 11 -74
12 -106 3z m73 -7 c9 -14 -10 -33 -27 -26 -20 7 -22 20 -4 27 19 8 25 8 31 -1z"/>
<path d="M1480 1549 c0 -20 23 -69 33 -69 14 0 7 38 -13 61 -14 18 -19 20 -20
8z"/>
<path d="M2373 1538 c-5 -13 -8 -29 -6 -36 8 -21 33 6 33 34 0 30 -14 31 -27
2z"/>
<path d="M1350 1533 c1 -15 50 -44 68 -41 12 3 4 11 -25 26 -24 12 -43 19 -43
15z"/>
<path d="M2387 1474 c-3 -6 -6 -44 -6 -85 0 -54 -5 -86 -20 -119 -16 -36 -21
-66 -21 -150 0 -111 -15 -229 -31 -244 -5 -6 -9 -21 -9 -35 0 -15 -6 -37 -14
-51 -7 -14 -26 -48 -41 -77 -29 -55 -114 -153 -133 -153 -6 0 -19 -14 -27 -30
-9 -17 -20 -28 -24 -25 -9 5 -41 -53 -41 -73 0 -5 -7 -12 -15 -16 -8 -3 -15
-12 -15 -21 0 -8 -6 -15 -14 -15 -7 0 -19 -13 -26 -30 -7 -17 -20 -30 -30 -30
-10 0 -20 -9 -23 -20 -4 -17 -29 -26 -59 -21 -5 0 -8 -3 -8 -8 0 -8 -34 -11
-112 -12 -15 0 -30 -4 -33 -9 -3 -6 -16 -5 -32 1 -18 7 -30 6 -37 -1 -13 -13
-26 -13 -26 1 0 13 -46 59 -58 59 -5 0 -19 13 -32 30 -14 16 -30 29 -36 30
-12 0 -29 28 -26 43 1 4 -15 19 -37 35 -21 15 -49 44 -62 64 -18 27 -28 35
-38 28 -11 -6 -8 -16 18 -49 18 -22 46 -49 62 -58 16 -10 29 -22 29 -29 0 -10
41 -61 105 -129 40 -42 92 -70 98 -52 4 9 7 9 17 0 8 -7 19 -9 29 -4 9 5 50
11 91 14 72 4 139 26 169 55 8 7 24 20 37 29 13 8 24 20 24 25 0 6 11 23 25
40 14 16 25 37 25 45 0 9 44 61 98 117 122 125 153 171 193 288 28 85 31 105
34 243 2 142 12 201 36 216 14 8 22 127 11 164 -4 16 -11 24 -15 19z"/>
<path d="M1475 1153 c-12 -28 -16 -53 -7 -53 4 0 12 16 18 35 11 36 2 49 -11
18z"/>
<path d="M1820 1049 c0 -26 -3 -30 -17 -24 -51 20 -76 13 -125 -33 -33 -30
-71 -26 -122 13 -20 15 -40 23 -50 19 -26 -10 -19 -18 37 -43 85 -40 107 -41
150 -10 47 34 96 47 108 28 8 -11 12 -10 24 5 17 22 20 76 5 76 -5 0 -10 -14
-10 -31z"/>
<path d="M1440 1008 c0 -22 14 -36 45 -48 l29 -11 -27 25 c-15 14 -27 30 -27
36 0 5 -4 10 -10 10 -5 0 -10 -6 -10 -12z"/>
<path d="M1915 764 c-22 -8 -66 -17 -97 -21 -32 -3 -58 -10 -58 -16 0 -18 136
2 192 27 40 19 47 24 28 24 -14 1 -43 -6 -65 -14z"/>
<path d="M1525 733 c-27 -8 -77 -12 -110 -10 l-60 3 44 -19 c40 -17 52 -18
110 -8 48 9 80 9 116 1 49 -10 110 -9 122 4 6 6 -25 10 -64 7 -11 -1 -24 3
-29 10 -4 8 -3 9 5 5 6 -4 17 -3 24 2 7 6 23 12 37 14 14 3 -8 4 -48 4 -63 0
-71 -2 -56 -13 16 -12 16 -13 -8 -13 -15 0 -28 6 -30 13 -2 11 -12 11 -53 0z"/>
<path d="M1133 663 c-12 -8 -92 -32 -179 -53 -86 -21 -162 -44 -167 -49 -6 -6
-21 -11 -33 -11 -12 0 -39 -7 -60 -16 -21 -9 -47 -18 -58 -20 -124 -24 -268
-63 -286 -79 -8 -7 -27 -15 -42 -19 -15 -3 -33 -12 -40 -20 -8 -7 -30 -21 -48
-31 -65 -33 -229 -175 -202 -175 12 0 30 13 96 71 55 47 164 123 196 135 8 3
33 14 55 23 70 31 108 43 185 55 11 2 98 30 148 47 29 10 56 18 60 17 4 0 14
1 22 5 8 3 40 12 70 20 214 59 258 70 285 72 18 1 31 8 33 18 5 22 -10 27 -35
10z"/>
<path d="M2300 676 c0 -3 15 -27 33 -53 44 -62 48 -75 54 -154 3 -55 0 -77
-23 -133 -14 -36 -30 -66 -35 -66 -5 0 -9 -7 -9 -15 0 -7 -6 -18 -12 -22 -25
-16 -112 -113 -102 -113 24 0 124 109 155 170 32 61 34 69 34 169 -1 81 -5
114 -18 138 -9 18 -17 34 -17 38 0 11 32 4 70 -14 40 -19 51 -16 28 7 -7 7
-21 12 -32 12 -19 1 -58 13 -108 35 -10 4 -18 4 -18 1z"/>
<path d="M1149 589 c0 -8 -2 -45 -5 -84 -8 -135 36 -279 108 -355 45 -48 100
-90 117 -90 7 0 -9 18 -36 40 -120 95 -177 224 -171 392 1 53 0 100 -5 104 -4
4 -7 1 -8 -7z"/>
<path d="M2575 587 c11 -8 40 -20 63 -26 23 -7 83 -25 134 -41 51 -17 100 -30
108 -30 8 0 28 -7 44 -15 34 -18 76 -27 76 -16 0 11 -225 88 -305 105 -5 2
-30 8 -55 15 -95 26 -88 25 -65 8z"/>
<path d="M2050 43 c-36 -14 -92 -29 -125 -33 l-60 -7 65 -2 c56 -1 75 4 135
34 83 40 76 44 -15 8z"/>
<path d="M1459 17 c10 -13 29 -17 85 -15 l71 1 -60 7 c-33 4 -71 11 -85 15
-23 8 -24 7 -11 -8z"/>
</g>
</svg>
